<?xml version="1.0" encoding="utf-8"?>
<!-- Generator: Adobe Illustrator 23.0.1, SVG Export Plug-In . SVG Version: 6.00 Build 0)  -->
<svg version="1.1" id="Layer_1" xmlns="http://www.w3.org/2000/svg" xmlns:xlink="http://www.w3.org/1999/xlink" x="0px" y="0px"
	 viewBox="0 0 90 30" style="enable-background:new 0 0 90 30;" xml:space="preserve">
<style type="text/css">
	.st0{fill:#FFFFFF;stroke:#1D1D1B;stroke-width:0.5;stroke-miterlimit:10;}
	.st1{fill:none;stroke:#4D4D4D;stroke-linecap:round;stroke-linejoin:round;stroke-miterlimit:10;}
	.st2{fill:#4D4D4D;}
</style>
<g>
	<rect x="0.2" y="0.9" class="st0" width="89.7" height="28.6"/>
	<polyline class="st1" points="26.1,22.2 19.1,15.2 26.1,8.1 	"/>
	<g>
		<g>
			<path class="st2" d="M36.8,19.3L36.8,19.3l0,1.2h-1.3V8.6h1.3v5.3h0c0.6-1.1,1.6-1.6,2.8-1.6c1,0,1.8,0.4,2.4,1.1
				s0.9,1.7,0.9,2.9c0,1.3-0.3,2.4-1,3.2s-1.5,1.2-2.7,1.2C38.1,20.6,37.3,20.2,36.8,19.3z M36.8,16.1v1.1c0,0.7,0.2,1.2,0.6,1.7
				s1,0.7,1.6,0.7c0.8,0,1.4-0.3,1.8-0.9s0.7-1.4,0.7-2.5c0-0.9-0.2-1.6-0.6-2.1s-1-0.8-1.7-0.8c-0.7,0-1.3,0.3-1.8,0.8
				S36.8,15.3,36.8,16.1z"/>
			<path class="st2" d="M50.6,20.5h-1.3v-1.3h0c-0.6,1-1.4,1.4-2.5,1.4c-0.8,0-1.4-0.2-1.9-0.6s-0.7-1-0.7-1.7
				c0-1.5,0.9-2.4,2.6-2.6l2.4-0.3c0-1.4-0.5-2-1.6-2c-1,0-1.8,0.3-2.6,1V13c0.8-0.5,1.7-0.8,2.7-0.8c1.9,0,2.8,1,2.8,3V20.5z
				 M49.3,16.4l-1.9,0.3c-0.6,0.1-1,0.2-1.3,0.4s-0.5,0.6-0.5,1.1c0,0.4,0.1,0.7,0.4,1s0.6,0.4,1.1,0.4c0.6,0,1.2-0.2,1.6-0.7
				s0.6-1,0.6-1.7V16.4z"/>
			<path class="st2" d="M58.5,20.1c-0.6,0.4-1.3,0.6-2.2,0.6c-1.1,0-2.1-0.4-2.8-1.1s-1.1-1.7-1.1-2.9c0-1.3,0.4-2.4,1.1-3.2
				s1.8-1.2,3-1.2c0.7,0,1.3,0.1,1.9,0.4V14c-0.6-0.4-1.2-0.6-1.9-0.6c-0.8,0-1.5,0.3-2,0.9s-0.8,1.4-0.8,2.3c0,0.9,0.2,1.7,0.7,2.2
				s1.2,0.8,2,0.8c0.7,0,1.4-0.2,2-0.7V20.1z"/>
			<path class="st2" d="M67,20.5h-1.8l-3.5-3.8h0v3.8h-1.3V8.6h1.3v7.5h0l3.4-3.7h1.7L63,16.3L67,20.5z"/>
		</g>
	</g>
</g>
</svg>
