<?xml version="1.0" encoding="utf-8"?>
<!-- Generator: Adobe Illustrator 23.0.1, SVG Export Plug-In . SVG Version: 6.00 Build 0)  -->
<svg version="1.1" id="Layer_1" xmlns="http://www.w3.org/2000/svg" xmlns:xlink="http://www.w3.org/1999/xlink" x="0px" y="0px"
	 viewBox="0 0 278 125" style="enable-background:new 0 0 278 125;" xml:space="preserve">
<style type="text/css">
	.st0{fill-rule:evenodd;clip-rule:evenodd;fill:#FFE9D2;}
	.st1{font-family:'Georgia';}
	.st2{font-size:20px;}
	.st3{fill-rule:evenodd;clip-rule:evenodd;fill:#FF931E;}
	.st4{fill-rule:evenodd;clip-rule:evenodd;fill:none;stroke:#000000;stroke-width:3;stroke-miterlimit:10;}
	
		.st5{fill-rule:evenodd;clip-rule:evenodd;fill:none;stroke:#000000;stroke-width:3;stroke-linecap:round;stroke-linejoin:round;stroke-miterlimit:10;}
	.st6{fill-rule:evenodd;clip-rule:evenodd;fill:none;stroke:#000000;stroke-width:3;stroke-linecap:round;stroke-miterlimit:10;}
	.st7{fill:none;stroke:#000000;stroke-width:3;stroke-linecap:round;stroke-linejoin:round;stroke-miterlimit:10;}
</style>
<g>
	<rect class="st0" width="278" height="125"/>
	<text transform="matrix(1 0 0 1 120.5161 55.9321)"><tspan x="0" y="0" class="st1 st2">Corruption &amp;</tspan><tspan x="0" y="24" class="st1 st2">Governance</tspan></text>
	<g>
		<circle class="st3" cx="55" cy="62.5" r="45"/>
		<g>
			<path class="st4" d="M73.5,42.9c0,11.1-8.3,22.6-18.5,22.6S36.5,54.1,36.5,42.9S44.8,25.2,55,25.2S73.5,31.8,73.5,42.9z"/>
			<path class="st5" d="M87,107.5l-2-20c-3-5.5-7.4-10-12.7-13.2"/>
			<path class="st6" d="M72.4,74.3c-2.1-1.3-4.4-2.3-6.8-3.1c-3,2.7-6.6,4.4-10.5,4.4s-7.5-1.7-10.5-4.4
				c-8.3,2.7-15.2,8.6-19.5,16.3l-2,20"/>
			<path class="st4" d="M55.1,25.2c-0.4,0-0.9,0-1.3,0.1c-2.8,0.2-5.5,0.8-7.8,2c-5.2,2.6-8.8,7.5-9.2,14.3c2.2-0.4,4.5-1.1,6.8-2.3
				c2.4-1.2,4.5-2.8,6.1-4.5c2.2,2.1,5.2,4,8.7,5.1c5.7,1.8,11.3,1.4,14.8-0.7C71.6,30.4,64.1,25.2,55.1,25.2z"/>
			<path class="st7" d="M33.5,77.3l3.9,9.3l4.7,1.9l-3.7,4.8l10.4,14.2l-4.3-36.3C40.4,72.5,36.7,74.6,33.5,77.3z"/>
			<path class="st7" d="M76.5,77.3l-3.9,9.3l-4.7,1.9l3.7,4.8l-10.4,14.2l4.3-36.3C69.6,72.5,73.3,74.6,76.5,77.3z"/>
			<path class="st7" d="M55,75.6c-1.9,0-3.7-0.4-5.4-1.1l3,9.7h4.8l3-9.7C58.7,75.2,56.9,75.6,55,75.6z"/>
			<polyline class="st7" points="60,107.5 57.4,84.2 52.6,84.2 50,107.5 			"/>
		</g>
	</g>
</g>
</svg>
