<?xml version="1.0" encoding="utf-8"?>
<!-- Generator: Adobe Illustrator 23.0.1, SVG Export Plug-In . SVG Version: 6.00 Build 0)  -->
<svg version="1.1" id="Layer_1" xmlns="http://www.w3.org/2000/svg" xmlns:xlink="http://www.w3.org/1999/xlink" x="0px" y="0px"
	 viewBox="0 0 100 100" style="enable-background:new 0 0 100 100;" xml:space="preserve">
<style type="text/css">
	.st0{fill-rule:evenodd;clip-rule:evenodd;fill:#E6E6E6;}
	.st1{fill-rule:evenodd;clip-rule:evenodd;fill:none;stroke:#000000;stroke-width:3;stroke-miterlimit:10;}
	
		.st2{fill-rule:evenodd;clip-rule:evenodd;fill:none;stroke:#000000;stroke-width:3;stroke-linecap:round;stroke-linejoin:round;stroke-miterlimit:10;}
</style>
<circle class="st0" cx="50" cy="50" r="45"/>
<g>
	<path class="st1" d="M82,95l-2-20c-3-5.5-7.4-10-12.7-13.2"/>
	<path class="st1" d="M67.4,61.8c-2.1-1.3-4.4-2.3-6.8-3.1c-3,2.7-6.6,4.4-10.5,4.4s-7.5-1.7-10.5-4.4C31.2,61.4,24.2,67.3,20,75
		l-2,20"/>
	<path class="st1" d="M68.5,30.4c0,11.1-8.3,22.6-18.5,22.6S31.5,41.6,31.5,30.4"/>
	<path class="st2" d="M82,95l-1.8-18.5h-12V62.4c-0.3-0.2-0.6-0.4-0.9-0.6c-2.1-1.3-4.4-2.3-6.7-3.1v17.8H39.3V58.8
		c-2.7,0.9-5.2,2.1-7.6,3.7v14.1H19.8L18,95"/>
	<path class="st2" d="M70.4,25.1h-0.1C69.2,14.3,60.5,7.9,50,7.9c-10.5,0-19.2,6.4-20.3,17.2h-0.1l-3,5.1h3.2h40.5h3.2L70.4,25.1z"
		/>
	<path class="st2" d="M46.5,11.6c-5.9,1.8-10.5,5.9-12.5,12"/>
</g>
</svg>
