<?xml version="1.0" encoding="utf-8"?>
<!-- Generator: Adobe Illustrator 23.0.1, SVG Export Plug-In . SVG Version: 6.00 Build 0)  -->
<svg version="1.1" id="Layer_1" xmlns="http://www.w3.org/2000/svg" xmlns:xlink="http://www.w3.org/1999/xlink" x="0px" y="0px"
	 viewBox="0 0 278 125" style="enable-background:new 0 0 278 125;" xml:space="preserve">
<style type="text/css">
	.st0{fill-rule:evenodd;clip-rule:evenodd;fill:#FFE9D2;}
	.st1{font-family:'Georgia';}
	.st2{font-size:20px;}
	.st3{fill-rule:evenodd;clip-rule:evenodd;fill:#FF931E;}
	.st4{fill-rule:evenodd;clip-rule:evenodd;fill:none;stroke:#000000;stroke-width:3;stroke-miterlimit:10;}
	.st5{fill-rule:evenodd;clip-rule:evenodd;fill:none;stroke:#000000;stroke-width:3;stroke-linecap:round;stroke-miterlimit:10;}
	.st6{fill-rule:evenodd;clip-rule:evenodd;fill:none;stroke:#000000;stroke-width:3;stroke-linejoin:round;stroke-miterlimit:10;}
</style>
<rect class="st0" width="278" height="125"/>
<text transform="matrix(1 0 0 1 120.5168 55.9327)"><tspan x="0" y="0" class="st1 st2">Migration &amp;</tspan><tspan x="0" y="24" class="st1 st2">Refugees</tspan></text>
<g>
	<circle class="st3" cx="55" cy="62.9" r="45"/>
	<path class="st4" d="M73.5,43.3c0,11.1-8.3,22.6-18.5,22.6S36.5,54.4,36.5,43.3S44.8,25.6,55,25.6S73.5,32.2,73.5,43.3z"/>
	<path class="st5" d="M87,107.9l-2-20c-2.3-4.2-5.4-7.8-9.1-10.7"/>
	<path class="st5" d="M34.1,77.1c-3.7,2.9-6.8,6.6-9.1,10.7l-2,20"/>
	<path class="st5" d="M68.9,72.9c-1.1-0.5-2.2-0.9-3.3-1.3c-3,2.7-6.6,4.4-10.5,4.4s-7.5-1.7-10.5-4.4c-1.1,0.4-2.3,0.8-3.4,1.3"/>
	<path class="st4" d="M55.1,25.6c-0.4,0-0.9,0-1.3,0.1c-2.8,0.2-5.5,0.8-7.8,2c-5.2,2.6-8.8,7.5-9.2,14.3c2.2-0.4,4.5-1.1,6.8-2.3
		c2.4-1.2,4.5-2.8,6.1-4.5c2.2,2.1,5.2,4,8.7,5.1c5.7,1.8,11.3,1.4,14.8-0.7C71.6,30.7,64.1,25.6,55.1,25.6z"/>
	<line class="st6" x1="41.1" y1="72.9" x2="41.1" y2="107.9"/>
	<polyline class="st6" points="34.1,107.9 34.1,65.9 41.1,65.9 41.1,72.9 	"/>
	<polyline class="st6" points="68.9,107.9 68.9,65.9 75.8,65.9 75.8,107.9 	"/>
	<path class="st6" d="M28.3,82.3V64.2c0-4,6.2-7.4,11.1-8.5"/>
	<path class="st6" d="M70.1,55.7c4.8,1.2,11.6,4.5,11.6,8.5v18.1"/>
</g>
</svg>
