<?xml version="1.0" encoding="utf-8"?>
<!-- Generator: Adobe Illustrator 23.0.1, SVG Export Plug-In . SVG Version: 6.00 Build 0)  -->
<svg version="1.1" id="Layer_1" xmlns="http://www.w3.org/2000/svg" xmlns:xlink="http://www.w3.org/1999/xlink" x="0px" y="0px"
	 viewBox="0 0 278 125" style="enable-background:new 0 0 278 125;" xml:space="preserve">
<style type="text/css">
</style>
<rect class="st0" width="278" height="125"/>
<text transform="matrix(1 0 0 1 120.5161 67.9323)" class="st1 st2">Crime</text>
<g>
	<circle class="st3" cx="55" cy="62.5" r="45"/>
	<g>
		<path class="st4" d="M73.5,42.9c0,11.1-8.3,22.6-18.5,22.6S36.5,54.1,36.5,42.9S44.8,25.2,55,25.2S73.5,31.8,73.5,42.9z"/>
		<path class="st5" d="M87,107.5l-2-20c-3-5.5-7.4-10-12.7-13.2"/>
		<path class="st5" d="M72.4,74.3c-2.1-1.3-4.4-2.3-6.8-3.1c-3,2.7-6.6,4.4-10.5,4.4s-7.5-1.7-10.5-4.4c-8.3,2.7-15.2,8.6-19.5,16.3
			l-2,20"/>
		<rect x="34.4" y="86" class="st4" width="41.3" height="16.3"/>
		<line class="st4" x1="42.5" y1="86" x2="42.5" y2="72"/>
		<line class="st4" x1="67.6" y1="86" x2="67.6" y2="72"/>
		<path class="st4" d="M55.1,25.2c-0.4,0-0.9,0-1.3,0.1c-2.8,0.2-5.5,0.8-7.8,2c-5.2,2.6-8.8,7.5-9.2,14.3c2.2-0.4,4.5-1.1,6.8-2.3
			c2.4-1.2,4.5-2.8,6.1-4.5c2.2,2.1,5.2,4,8.7,5.1c5.7,1.8,11.3,1.4,14.8-0.7C71.6,30.4,64.1,25.2,55.1,25.2z"/>
		<line class="st6" x1="71.8" y1="33.4" x2="85.8" y2="33.4"/>
		<line class="st6" x1="24.2" y1="33.4" x2="39.2" y2="33.4"/>
		<line class="st6" x1="73.1" y1="47" x2="85.8" y2="47"/>
		<line class="st6" x1="24.2" y1="47" x2="36.9" y2="47"/>
		<line class="st6" x1="66.7" y1="60.5" x2="85.8" y2="60.5"/>
		<line class="st6" x1="24.2" y1="60.5" x2="43.8" y2="60.5"/>
		<line class="st6" x1="72" y1="74.1" x2="85.8" y2="74.1"/>
		<line class="st6" x1="24.2" y1="74.1" x2="38" y2="74.1"/>
	</g>
</g>
</svg>
