<?xml version="1.0" encoding="utf-8"?>
<!-- Generator: Adobe Illustrator 23.0.1, SVG Export Plug-In . SVG Version: 6.00 Build 0)  -->
<svg version="1.1" id="Layer_1" xmlns="http://www.w3.org/2000/svg" xmlns:xlink="http://www.w3.org/1999/xlink" x="0px" y="0px"
	 viewBox="0 0 100 100" style="enable-background:new 0 0 100 100;" xml:space="preserve">
<style type="text/css">
	.st0{fill-rule:evenodd;clip-rule:evenodd;fill:#E6E6E6;}
	.st1{fill-rule:evenodd;clip-rule:evenodd;fill:none;stroke:#000000;stroke-width:3;stroke-linecap:round;stroke-miterlimit:10;}
	.st2{fill:none;stroke:#000000;stroke-width:3;stroke-linecap:round;stroke-linejoin:round;stroke-miterlimit:10;}
	
		.st3{fill-rule:evenodd;clip-rule:evenodd;fill:none;stroke:#000000;stroke-width:3;stroke-linecap:round;stroke-linejoin:round;stroke-miterlimit:10;}
	.st4{fill:none;stroke:#000000;stroke-width:3;stroke-linecap:round;stroke-miterlimit:10;}
</style>
<circle class="st0" cx="50" cy="50.4" r="45"/>
<g>
	<path class="st1" d="M65.7,42.1c-3.3,6.5-9.1,11.3-15.7,11.3c-7,0-13.1-5.4-16.2-12.4"/>
	<path class="st1" d="M82,95.4l-2-20c-3-5.5-7.4-10-12.7-13.2"/>
	<path class="st1" d="M67.4,62.2c-2.1-1.3-4.4-2.3-6.8-3.1c-3,2.7-6.6,4.4-10.5,4.4s-7.5-1.7-10.5-4.4c-8.3,2.7-15.2,8.6-19.5,16.3
		l-2,20"/>
	<line class="st2" x1="50" y1="63.4" x2="50" y2="95.4"/>
	<path class="st3" d="M33.1,41C33,40.1,33,39.2,33,38.2c0-10.6,7.3-19.6,17.4-22.6"/>
	<path class="st3" d="M65.7,41.8c5.9-3.8,9.7-9.7,9.7-16.4C75.4,14,64,4.6,50,4.6c-14,0-25.4,9.3-25.4,20.8c0,6.2,3.3,11.8,8.6,15.6
		"/>
	<path class="st1" d="M34.8,20.7c2.2-0.6,4.4-0.9,6.8-0.9c12.6,0,23,9.4,24.5,21.6"/>
	<ellipse class="st4" cx="49.8" cy="46.8" rx="9.4" ry="6.7"/>
</g>
</svg>
