<?xml version="1.0" encoding="utf-8"?>
<!-- Generator: Adobe Illustrator 23.0.1, SVG Export Plug-In . SVG Version: 6.00 Build 0)  -->
<svg version="1.1" id="Layer_1" xmlns="http://www.w3.org/2000/svg" xmlns:xlink="http://www.w3.org/1999/xlink" x="0px" y="0px"
	 viewBox="0 0 100 100" style="enable-background:new 0 0 100 100;" xml:space="preserve">
<style type="text/css">
	.st0{fill-rule:evenodd;clip-rule:evenodd;fill:#E6E6E6;}
	.st1{fill-rule:evenodd;clip-rule:evenodd;fill:none;stroke:#000000;stroke-width:3;stroke-miterlimit:10;}
	.st2{fill-rule:evenodd;clip-rule:evenodd;fill:none;stroke:#000000;stroke-width:3;stroke-linecap:round;stroke-miterlimit:10;}
	.st3{fill:none;stroke:#000000;stroke-width:3;stroke-linecap:round;stroke-linejoin:round;stroke-miterlimit:10;}
	.st4{fill:none;stroke:#000000;stroke-width:3;stroke-linecap:round;stroke-miterlimit:10;}
</style>
<circle class="st0" cx="50" cy="50" r="45"/>
<g>
	<path class="st1" d="M68.5,30.4c0,11.1-8.3,22.6-18.5,22.6S31.5,41.6,31.5,30.4S39.8,12.7,50,12.7S68.5,19.3,68.5,30.4z"/>
	<path class="st2" d="M82,95l-2-20c-3-5.5-7.4-10-12.7-13.2"/>
	<path class="st2" d="M67.4,61.8c-2.1-1.3-4.4-2.3-6.8-3.1c-3,2.7-6.6,4.4-10.5,4.4s-7.5-1.7-10.5-4.4C31.2,61.4,24.2,67.3,20,75
		l-2,20"/>
	<path class="st1" d="M50.1,12.7c-0.4,0-0.9,0-1.3,0.1c-2.8,0.2-5.5,0.8-7.8,2c-5.2,2.6-8.8,7.5-9.2,14.3c2.2-0.4,4.5-1.1,6.8-2.3
		c2.4-1.2,4.5-2.8,6.1-4.5c2.2,2.1,5.2,4,8.7,5.1c5.7,1.8,11.3,1.4,14.8-0.7C66.6,17.9,59.1,12.7,50.1,12.7z"/>
	<g>
		<rect x="38" y="30.9" class="st3" width="9.4" height="6.9"/>
		<rect x="52.7" y="30.9" class="st3" width="9.4" height="6.9"/>
	</g>
	<line class="st3" x1="38" y1="32.9" x2="31.7" y2="32.9"/>
	<line class="st3" x1="52.8" y1="32.9" x2="47.3" y2="32.9"/>
	<line class="st3" x1="68.3" y1="32.9" x2="62" y2="32.9"/>
	<line class="st3" x1="50" y1="63.1" x2="50" y2="95"/>
	<rect x="56.5" y="74.2" class="st4" width="11.9" height="14.3"/>
	<line class="st4" x1="66.4" y1="66.4" x2="66.4" y2="73.8"/>
	<line class="st4" x1="62" y1="68.7" x2="62" y2="73.8"/>
</g>
</svg>
