<?xml version="1.0" encoding="utf-8"?>
<!-- Generator: Adobe Illustrator 23.0.1, SVG Export Plug-In . SVG Version: 6.00 Build 0)  -->
<svg version="1.1" id="Layer_1" xmlns="http://www.w3.org/2000/svg" xmlns:xlink="http://www.w3.org/1999/xlink" x="0px" y="0px"
	 viewBox="0 0 278 125" style="enable-background:new 0 0 278 125;" xml:space="preserve">
<style type="text/css">
	.st0{fill-rule:evenodd;clip-rule:evenodd;fill:#FFE9D2;}
	.st1{font-family:'Georgia';}
	.st2{font-size:20px;}
	.st3{fill-rule:evenodd;clip-rule:evenodd;fill:#FF931E;}
	.st4{fill-rule:evenodd;clip-rule:evenodd;fill:none;stroke:#000000;stroke-width:3;stroke-miterlimit:10;}
	
		.st5{fill-rule:evenodd;clip-rule:evenodd;fill:none;stroke:#000000;stroke-width:3;stroke-linecap:round;stroke-linejoin:round;stroke-miterlimit:10;}
</style>
<rect class="st0" width="278" height="125"/>
<text transform="matrix(1 0 0 1 120.5168 55.9321)"><tspan x="0" y="0" class="st1 st2">Employment &amp;</tspan><tspan x="0" y="24" class="st1 st2">Labour Market</tspan></text>
<g>
	<circle class="st3" cx="55" cy="62.5" r="45"/>
	<g>
		<path class="st4" d="M87,107.5l-2-20c-3-5.5-7.4-10-12.7-13.2"/>
		<path class="st4" d="M72.4,74.3c-2.1-1.3-4.4-2.3-6.8-3.1c-3,2.7-6.6,4.4-10.5,4.4s-7.5-1.7-10.5-4.4c-8.3,2.7-15.2,8.6-19.5,16.3
			l-2,20"/>
		<path class="st4" d="M73.5,42.9c0,11.1-8.3,22.6-18.5,22.6S36.5,54.1,36.5,42.9"/>
		<path class="st5" d="M87,107.5L85.2,89h-12V74.9c-0.3-0.2-0.6-0.4-0.9-0.6c-2.1-1.3-4.4-2.3-6.7-3.1V89H44.3V71.3
			c-2.7,0.9-5.2,2.1-7.6,3.7V89H24.8L23,107.5"/>
		<path class="st5" d="M75.4,37.6h-0.1C74.2,26.8,65.5,20.4,55,20.4c-10.5,0-19.2,6.4-20.3,17.2h-0.1l-3,5.1h3.2h40.5h3.2L75.4,37.6
			z"/>
		<path class="st5" d="M51.5,24.1c-5.9,1.8-10.5,5.9-12.5,12"/>
	</g>
</g>
</svg>
