<?xml version="1.0" encoding="utf-8"?>
<!-- Generator: Adobe Illustrator 23.0.1, SVG Export Plug-In . SVG Version: 6.00 Build 0)  -->
<svg version="1.1" id="Layer_1" xmlns="http://www.w3.org/2000/svg" xmlns:xlink="http://www.w3.org/1999/xlink" x="0px" y="0px"
	 viewBox="0 0 278 125" style="enable-background:new 0 0 278 125;" xml:space="preserve">
<style type="text/css">
	.st0{fill-rule:evenodd;clip-rule:evenodd;fill:#FFE9D2;}
	.st1{font-family:'Georgia';}
	.st2{font-size:20px;}
	.st3{fill-rule:evenodd;clip-rule:evenodd;fill:#FF931E;}
	.st4{fill-rule:evenodd;clip-rule:evenodd;fill:none;stroke:#000000;stroke-width:3;stroke-miterlimit:10;}
	.st5{fill-rule:evenodd;clip-rule:evenodd;fill:none;stroke:#000000;stroke-width:3;stroke-linecap:round;stroke-miterlimit:10;}
	.st6{fill:none;stroke:#000000;stroke-width:3;stroke-linecap:round;stroke-linejoin:round;stroke-miterlimit:10;}
	.st7{fill:none;stroke:#000000;stroke-width:3;stroke-linecap:round;stroke-miterlimit:10;}
</style>
<rect class="st0" width="278" height="125"/>
<text transform="matrix(1 0 0 1 120.5161 67.9323)" class="st1 st2">Education</text>
<g>
	<circle class="st3" cx="55" cy="62.5" r="45"/>
	<g>
		<path class="st4" d="M73.5,42.9c0,11.1-8.3,22.6-18.5,22.6S36.5,54.1,36.5,42.9S44.8,25.2,55,25.2S73.5,31.8,73.5,42.9z"/>
		<path class="st5" d="M87,107.5l-2-20c-3-5.5-7.4-10-12.7-13.2"/>
		<path class="st5" d="M72.4,74.3c-2.1-1.3-4.4-2.3-6.8-3.1c-3,2.7-6.6,4.4-10.5,4.4s-7.5-1.7-10.5-4.4c-8.3,2.7-15.2,8.6-19.5,16.3
			l-2,20"/>
		<path class="st4" d="M55.1,25.2c-0.4,0-0.9,0-1.3,0.1c-2.8,0.2-5.5,0.8-7.8,2c-5.2,2.6-8.8,7.5-9.2,14.3c2.2-0.4,4.5-1.1,6.8-2.3
			c2.4-1.2,4.5-2.8,6.1-4.5c2.2,2.1,5.2,4,8.7,5.1c5.7,1.8,11.3,1.4,14.8-0.7C71.6,30.4,64.1,25.2,55.1,25.2z"/>
		<line class="st6" x1="43" y1="45.4" x2="36.7" y2="45.4"/>
		<line class="st6" x1="57.8" y1="45.4" x2="52.3" y2="45.4"/>
		<line class="st6" x1="73.3" y1="45.4" x2="67" y2="45.4"/>
		<line class="st6" x1="55" y1="75.6" x2="55" y2="107.5"/>
		<line class="st7" x1="71.4" y1="78.9" x2="71.4" y2="86.3"/>
		<circle class="st6" cx="47.7" cy="47.5" r="4.9"/>
		<circle class="st6" cx="62.7" cy="47.5" r="4.9"/>
		<line class="st6" x1="31" y1="79.5" x2="31" y2="107.5"/>
		<line class="st6" x1="79.7" y1="80.8" x2="79.7" y2="107.5"/>
		<line class="st6" x1="39" y1="73.6" x2="39" y2="107.5"/>
		<line class="st6" x1="71.5" y1="74.3" x2="71.5" y2="107.5"/>
		<line class="st6" x1="47" y1="74.3" x2="47" y2="107.5"/>
		<line class="st6" x1="63.2" y1="74.3" x2="63.2" y2="107.5"/>
		<line class="st6" x1="32.4" y1="80.5" x2="77.6" y2="80.5"/>
		<line class="st6" x1="25" y1="87.3" x2="84.5" y2="87.3"/>
		<line class="st6" x1="24.3" y1="94.2" x2="85.7" y2="94.2"/>
		<line class="st6" x1="24.3" y1="101.1" x2="86.4" y2="101.1"/>
	</g>
</g>
</svg>
