<?xml version="1.0" encoding="utf-8"?>
<!-- Generator: Adobe Illustrator 23.0.1, SVG Export Plug-In . SVG Version: 6.00 Build 0)  -->
<svg version="1.1" id="Layer_1" xmlns="http://www.w3.org/2000/svg" xmlns:xlink="http://www.w3.org/1999/xlink" x="0px" y="0px"
	 viewBox="0 0 100 100" style="enable-background:new 0 0 100 100;" xml:space="preserve">
<style type="text/css">
	.st0{fill-rule:evenodd;clip-rule:evenodd;fill:#E6E6E6;}
	.st1{fill-rule:evenodd;clip-rule:evenodd;fill:none;stroke:#000000;stroke-width:3;stroke-miterlimit:10;}
	.st2{fill-rule:evenodd;clip-rule:evenodd;fill:none;stroke:#000000;stroke-width:3;stroke-linecap:round;stroke-miterlimit:10;}
</style>
<circle class="st0" cx="50" cy="50" r="45"/>
<g>
	<path class="st1" d="M68.5,30.4c0,11.1-8.3,22.6-18.5,22.6S31.5,41.6,31.5,30.4S39.8,12.7,50,12.7S68.5,19.3,68.5,30.4z"/>
	<path class="st2" d="M82,95l-2-20c-3-5.5-7.4-10-12.7-13.2"/>
	<path class="st2" d="M67.4,61.8c-2.1-1.3-4.4-2.3-6.8-3.1c-3,2.7-6.6,4.4-10.5,4.4s-7.5-1.7-10.5-4.4C31.2,61.4,24.2,67.3,20,75
		l-2,20"/>
	<path class="st1" d="M82,95c0,0-4.7,0-6.7,0c-4.8,0-11-6-8.7-19.5c0.8-4.7,1.8-9.2,1.9-12.9c-0.4-0.3-0.8-0.5-1.2-0.7
		c-1.5-0.9-3.1-1.7-4.8-2.4c0,0.6,0.1,1.2,0.1,1.9c0,10.5-5.7,19.1-12.6,19.1c-7,0-12.6-8.6-12.6-19.1c0-0.6,0-1.3,0.1-1.9
		c-2.1,0.8-4.1,1.9-5.9,3.1c0.1,3.8,0.8,6.8,1.8,10.8C35.9,86.9,29.6,95,24.8,95c-2.2,0-6.8,0-6.8,0"/>
	<line class="st2" x1="39.3" y1="22.7" x2="60.7" y2="22.7"/>
	<line class="st2" x1="42.9" y1="27.7" x2="57.1" y2="27.7"/>
</g>
</svg>
