<?xml version="1.0" encoding="utf-8"?>
<!-- Generator: Adobe Illustrator 23.0.1, SVG Export Plug-In . SVG Version: 6.00 Build 0)  -->
<svg version="1.1" id="Layer_1" xmlns="http://www.w3.org/2000/svg" xmlns:xlink="http://www.w3.org/1999/xlink" x="0px" y="0px"
	 viewBox="0 0 278 125" style="enable-background:new 0 0 278 125;" xml:space="preserve">
<style type="text/css">
	.st0{fill-rule:evenodd;clip-rule:evenodd;fill:#FFE9D2;}
	.st1{font-family:'Georgia';}
	.st2{font-size:20px;}
	.st3{fill-rule:evenodd;clip-rule:evenodd;fill:#FF931E;}
	.st4{fill-rule:evenodd;clip-rule:evenodd;fill:none;stroke:#000000;stroke-width:3;stroke-miterlimit:10;}
	.st5{fill-rule:evenodd;clip-rule:evenodd;fill:none;stroke:#000000;stroke-width:3;stroke-linecap:round;stroke-miterlimit:10;}
</style>
<rect class="st0" width="278" height="125"/>
<text transform="matrix(1 0 0 1 120.5164 55.9321)"><tspan x="0" y="0" class="st1 st2">Economy &amp;</tspan><tspan x="0" y="24" class="st1 st2">Poverty</tspan></text>
<g>
	<circle class="st3" cx="55" cy="62.5" r="45"/>
	<g>
		<path class="st4" d="M73.5,42.9c0,11.1-8.3,22.6-18.5,22.6S36.5,54.1,36.5,42.9S44.8,25.2,55,25.2S73.5,31.8,73.5,42.9z"/>
		<path class="st5" d="M87,107.5l-2-20c-3-5.5-7.4-10-12.7-13.2"/>
		<path class="st5" d="M72.4,74.3c-2.1-1.3-4.4-2.3-6.8-3.1c-3,2.7-6.6,4.4-10.5,4.4s-7.5-1.7-10.5-4.4c-8.3,2.7-15.2,8.6-19.5,16.3
			l-2,20"/>
		<path class="st4" d="M87,107.5c0,0-4.7,0-6.7,0c-4.8,0-11-6-8.7-19.5c0.8-4.7,1.8-9.2,1.9-12.9c-0.4-0.3-0.8-0.5-1.2-0.7
			c-1.5-0.9-3.1-1.7-4.8-2.4c0,0.6,0.1,1.2,0.1,1.9c0,10.5-5.7,19.1-12.6,19.1c-7,0-12.6-8.6-12.6-19.1c0-0.6,0-1.3,0.1-1.9
			c-2.1,0.8-4.1,1.9-5.9,3.1c0.1,3.8,0.8,6.8,1.8,10.8c2.7,13.6-3.7,21.7-8.5,21.7c-2.2,0-6.8,0-6.8,0"/>
		<line class="st5" x1="44.3" y1="35.2" x2="65.7" y2="35.2"/>
		<line class="st5" x1="47.9" y1="40.2" x2="62.1" y2="40.2"/>
	</g>
</g>
</svg>
